<?xml version="1.0" encoding="UTF-8"?><svg id="Layer_2" xmlns="http://www.w3.org/2000/svg" viewBox="0 0 199.41 194.31"><defs><style>.cls-1{fill:#d43eb5;}</style></defs><g id="Layer_1-2"><path class="cls-1" d="m99.94,0C44.95-.21.21,44.2,0,99.19c-.16,43.15,27.49,81.49,68.48,94.96,4.98.8,6.57-2.29,6.57-4.98v-16.83c-27.58,5.97-33.45-13.04-33.45-13.04-1.86-6.18-5.89-11.49-11.35-14.93-9.06-6.17.7-5.97.7-5.97,6.33.82,11.94,4.49,15.23,9.96,5.76,10.24,18.68,13.92,28.97,8.26.45-5.05,2.68-9.77,6.27-13.34-21.31-2.19-45-10.75-45-48.69-.29-9.94,3.28-19.61,9.96-26.98-3.03-8.57-2.68-17.97,1-26.29,0,0,8.36-2.69,27.38,9.96,16.3-4.38,33.48-4.38,49.78,0,19.02-12.84,27.38-9.96,27.38-9.96,3.67,8.31,4.03,17.72,1,26.29,6.68,7.37,10.24,17.04,9.96,26.98,0,38.03-23.3,46.4-45.5,48.89,4.84,4.86,7.34,11.58,6.87,18.42v27.28c0,2.69,1.59,5.87,6.67,4.98,52.24-17.17,80.67-73.44,63.5-125.68C180.99,27.66,142.9.05,99.94,0Z"/></g></svg>