<?xml version="1.0" encoding="UTF-8"?><svg id="Layer_2" xmlns="http://www.w3.org/2000/svg" viewBox="0 0 200.51 200.51"><defs><style>.cls-1{fill:#d43eb5;}</style></defs><g id="Layer_1-2"><path class="cls-1" d="m100.25,0C44.88,0,0,44.88,0,100.25s44.88,100.25,100.25,100.25,100.25-44.88,100.25-100.25S155.63,0,100.25,0Zm-28.04,142.19h-19.54v-62.54h19.54v62.54Zm-10.3-70.37h-.16c-7.09,0-11.67-4.78-11.67-10.85s4.74-10.85,11.94-10.85,11.63,4.66,11.79,10.85c.04,6.03-4.54,10.85-11.91,10.85Zm88.47,70.37h-22.17v-32.35c0-8.46-3.45-14.25-11.08-14.25-5.84,0-9.09,3.92-10.57,7.68-.55,1.33-.47,3.21-.47,5.13v33.8h-21.97s.27-57.33,0-62.54h21.97v9.83c1.29-4.31,8.3-10.42,19.5-10.42,13.9,0,24.79,9.01,24.79,28.35v34.78Z"/></g></svg>